<?xml version="1.0" encoding="UTF-8"?>
<svg width="34px" height="32px" viewBox="0 0 34 32" version="1.1" xmlns="http://www.w3.org/2000/svg" xmlns:xlink="http://www.w3.org/1999/xlink">
    <title>7FEF41F0-7302-4C2F-9C38-332B190365B4</title>
    <g id="Home-Page" stroke="none" stroke-width="1" fill="none" fill-rule="evenodd">
        <g id="02-Sixtbook_dashboard-without-menus" transform="translate(-507.000000, -628.000000)">
            <g id="Group-10" transform="translate(436.000000, 619.000000)">
                <g id="Group-16" transform="translate(72.000000, 10.874991)">
                    <path d="M31.1539219,9.31008643 L31.6032019,9.31968643 L31.6051219,9.24672643 L31.6051219,9.23712643 C31.6044819,6.83520643 30.7385619,4.53440643 29.2083219,2.82304643 C27.6800019,1.11232643 25.4720019,-0.00191357128 22.8492819,-1.27897692e-13 C20.7577619,-0.00255357128 19.0726419,0.759686429 17.8336019,1.87200643 C16.5920019,2.98432643 15.7849619,4.43328643 15.3708819,5.83808643 L15.8028819,5.96480643 L16.2342419,5.83808643 C15.8208019,4.43328643 15.0131219,2.98432643 13.7715219,1.87200643 C12.5324819,0.759686429 10.8473619,-0.00255357128 8.7558419,-1.27897692e-13 C6.1331219,-0.00191357128 3.9251219,1.11232643 2.3968019,2.82304643 C0.866561899,4.53440643 0.000641898999,6.83520643 7.10542736e-14,9.23712643 L7.10542736e-14,9.24864643 L0.001921899,9.32160643 L0.451841899,9.31008643 L0.001921899,9.29792643 C0.000641898999,9.34016643 7.10542736e-14,9.39584643 7.10542736e-14,9.46560643 C-0.000638101001,10.3315264 0.159361899,13.2428864 2.1958419,16.9440064 C4.2304019,20.6451264 8.1408019,25.1244864 15.5846419,29.1372864 L15.7977619,28.7411264 L15.3478419,28.7411264 L15.3478419,28.7436864 C15.3478419,28.9043264 15.4329619,29.0521664 15.5718419,29.1328064 C15.7113619,29.2134464 15.8816019,29.2140864 16.0211219,29.1347264 L16.0236819,29.1334464 L15.8003219,28.7424064 L15.5987219,29.1449664 L15.6012819,29.1462464 C15.7363219,29.2134464 15.8950419,29.2089664 16.0256019,29.1347264 L16.0281619,29.1334464 L15.8048019,28.7424064 L15.5814419,29.1334464 L15.5840019,29.1347264 C15.7235219,29.2140864 15.8937619,29.2134464 16.0326419,29.1328064 C16.1721619,29.0521664 16.2572819,28.9043264 16.2572819,28.7436864 L16.2572819,28.7411264 L15.8073619,28.7411264 L16.0204819,29.1372864 C23.4643219,25.1238464 27.3747219,20.6451264 29.4099219,16.9433664 C31.4457619,13.2428864 31.6057619,10.3315264 31.6057619,9.46496643 C31.6057619,9.39584643 31.6044819,9.34016643 31.6032019,9.29856643 L31.1539219,9.31008643 L31.6032019,9.31968643 L31.1539219,9.31008643 L30.7040019,9.32160643 C30.7046419,9.35680643 30.7059219,9.40480643 30.7059219,9.46496643 C30.7052819,10.2208064 30.5696019,12.9676864 28.6214419,16.5094464 C26.6713619,20.0512064 22.9075219,24.3993664 15.5936019,28.3449664 C15.4483219,28.4236864 15.3574419,28.5760064 15.3574419,28.7411264 L15.3574419,28.7436864 L15.8073619,28.7436864 L16.0300819,28.3532864 L16.0281619,28.3520064 C15.8899219,28.2726464 15.7196819,28.2726464 15.5814419,28.3520064 L15.5795219,28.3532864 L15.8028819,28.7436864 L16.0038419,28.3411264 L16.0012819,28.3398464 C15.8668819,28.2726464 15.7075219,28.2771264 15.5769619,28.3520064 L15.5750419,28.3532864 L15.7977619,28.7436864 L16.2476819,28.7436864 L16.2476819,28.7411264 C16.2476819,28.5760064 16.1568019,28.4236864 16.0115219,28.3449664 C8.6976019,24.3993664 4.9337619,20.0512064 2.9843219,16.5100864 C1.0355219,12.9676864 0.899841899,10.2208064 0.899841899,9.46560643 C0.899841899,9.40480643 0.900481899,9.35680643 0.901761899,9.32224643 L0.901761899,9.29856643 L0.899841899,9.22560643 L0.449921899,9.23712643 L0.899841899,9.23712643 C0.899201899,7.05152643 1.6921619,4.95936643 3.0675219,3.42336643 C4.4454419,1.88736643 6.3904019,0.901766429 8.7558419,0.899846429 C10.6284819,0.901766429 12.0742419,1.56416643 13.1718419,2.54272643 C14.2668819,3.52128643 15.0009619,4.83008643 15.3708819,6.09216643 C15.4272019,6.28352643 15.6032019,6.41472643 15.8028819,6.41472643 C16.0025619,6.41472643 16.1779219,6.28352643 16.2342419,6.09216643 C16.6048019,4.83008643 17.3388819,3.52128643 18.4332819,2.54272643 C19.5308819,1.56416643 20.9766419,0.901766429 22.8492819,0.899846429 C25.2147219,0.901766429 27.1596819,1.88736643 28.5376019,3.42336643 C29.9129619,4.95936643 30.7059219,7.05152643 30.7052819,9.23712643 L31.1552019,9.23712643 L30.7052819,9.22752643 L30.7040019,9.30048643 L30.7040019,9.32160643 L31.1539219,9.31008643" id="Fill-23" stroke="#191919" fill="#191919"></path>
                    <path d="M3.6153619,6.25280643 L3.6256019,6.22912643 C3.6851219,6.09792643 3.9942419,5.45280643 4.5516819,4.79552643 C5.1104019,4.13568643 5.9097619,3.47392643 6.9459219,3.25696643 C7.1078419,3.22240643 7.2115219,3.06368643 7.1776019,2.90112643 C7.1430419,2.73920643 6.9843219,2.63552643 6.8224019,2.66944643 C5.5219219,2.94464643 4.5856019,3.79136643 3.9756819,4.55104643 C3.3644819,5.31328643 3.0707219,6.00128643 3.0636819,6.01728643 C2.9984019,6.16960643 3.0688019,6.34560643 3.2211219,6.41088643 C3.3734419,6.47616643 3.5500819,6.40512643 3.6153619,6.25280643" id="Fill-32" fill="#141F22"></path>
                </g>
            </g>
        </g>
    </g>
</svg>